<svg width="186" height="36" viewBox="0 0 186 36" fill="none" xmlns="http://www.w3.org/2000/svg">
<rect x="3" width="115" height="5" rx="2.5" fill="#AEB5BD"/>
<rect x="122" y="2" width="22" height="5" rx="2.5" fill="#AEB5BD"/>
<rect x="14" y="17" width="22" height="5" rx="2.5" fill="#AEB5BD"/>
<rect x="15" y="31" width="22" height="5" rx="2.5" fill="#AEB5BD"/>
<rect x="44" y="31" width="21" height="5" rx="2.5" fill="#AEB5BD"/>
<rect x="41" y="17" width="61" height="5" rx="2.5" fill="#AEB5BD"/>
<rect x="72" y="31" width="114" height="5" rx="2.5" fill="#AEB5BD"/>
<rect x="108" y="17" width="46" height="5" rx="2.5" fill="#AEB5BD"/>
<rect x="150" y="2" width="20" height="5" rx="2.5" fill="#AEB5BD"/>
<rect x="177" y="2" width="9" height="5" rx="2.5" fill="#AEB5BD"/>
<rect x="160" y="17" width="9" height="5" rx="2.5" fill="#AEB5BD"/>
<rect y="31" width="9" height="5" rx="2.5" fill="#AEB5BD"/>
</svg>
